<?xml version="1.0" encoding="UTF-8"?>
<!DOCTYPE svg PUBLIC "-//W3C//DTD SVG 1.1//EN" "http://www.w3.org/Graphics/SVG/1.1/DTD/svg11.dtd">
<!-- Creator: CorelDRAW -->
<svg xmlns="http://www.w3.org/2000/svg" xml:space="preserve" width="176.86mm" height="51.4734mm" version="1.1" style="shape-rendering:geometricPrecision; text-rendering:geometricPrecision; image-rendering:optimizeQuality; fill-rule:evenodd; clip-rule:evenodd"
viewBox="0 0 17686.04 5147.34"
 xmlns:xlink="http://www.w3.org/1999/xlink"
 xmlns:xodm="http://www.corel.com/coreldraw/odm/2003">
 <defs>
  <style type="text/css">
   <![CDATA[
    .fil0 {fill:#1A3D64}
    .fil1 {fill:#F4F4F4}
   ]]>
  </style>
 </defs>
 <g id="Layer_x0020_1">
  <metadata id="CorelCorpID_0Corel-Layer"/>
  <path class="fil0" d="M5416.13 650.43l1023.13 0c274.8,0 475.37,58.46 601.73,175.38 126.35,116.93 189.54,308.44 189.54,574.54 0,126.33 -16.57,233.17 -49.68,320.53 -33.13,87.36 -96.31,170.01 -189.54,247.96 90.78,48.38 158.25,118.94 202.42,211.67 44.16,92.73 66.24,214.36 66.24,364.88 0,271.48 -71.16,475.76 -213.46,612.84 -142.3,137.08 -347.17,205.62 -614.61,205.62l-1015.77 0 0 -2713.42zm324.79 3543.87l0 287.84 399.99 0 0 261.35 -399.99 0 0 379.66 -312.31 0 0 -1190.2 812.75 0 0 261.35 -500.44 0zm11935.6 662.2l0 266.65 -712.3 0 0 -1190.2 312.31 0 0 923.55 399.99 0zm-1901.29 -324.92c0,-142.45 17.35,-259 52.05,-349.64 34.7,-90.65 90.11,-158.64 166.2,-203.96 76.1,-45.33 177.47,-67.99 304.1,-67.99 127.86,0 230.13,22.66 306.84,67.99 76.71,45.32 132.42,113.31 167.12,203.96 34.7,90.64 52.05,207.19 52.05,349.64 0,136.56 -16.74,249.58 -50.22,339.05 -33.49,89.47 -88.89,157.75 -166.21,204.84 -77.31,47.09 -180.51,70.64 -309.58,70.64 -125.41,0 -226.17,-21.78 -302.27,-65.34 -76.1,-43.56 -131.81,-110.37 -167.12,-200.43 -35.31,-90.06 -52.96,-206.31 -52.96,-348.76zm321.45 1.77c0,76.52 4.56,139.79 13.69,189.83 9.14,50.03 28.31,89.47 57.54,118.31 29.22,28.84 72.44,43.27 129.67,43.27 52.36,0 93.46,-11.48 123.29,-34.44 29.82,-22.95 50.83,-60.04 63,-111.25 12.19,-51.21 18.27,-120.37 18.27,-207.49 0,-87.12 -6.39,-156.28 -19.18,-207.49 -12.78,-51.21 -34.09,-89.47 -63.93,-114.78 -29.82,-25.31 -70.31,-37.97 -121.45,-37.97 -49.91,0 -89.49,12.66 -118.72,37.97 -29.21,25.31 -50.22,63.86 -63,115.66 -12.79,51.8 -19.18,121.26 -19.18,208.38zm-1477.57 -1.77c0,-142.45 17.36,-259 52.06,-349.64 34.7,-90.65 90.1,-158.64 166.19,-203.96 76.11,-45.33 177.48,-67.99 304.1,-67.99 127.86,0 230.13,22.66 306.84,67.99 76.71,45.32 132.42,113.31 167.12,203.96 34.7,90.64 52.06,207.19 52.06,349.64 0,136.56 -16.75,249.58 -50.23,339.05 -33.49,89.47 -88.88,157.75 -166.21,204.84 -77.31,47.09 -180.51,70.64 -309.58,70.64 -125.4,0 -226.16,-21.78 -302.27,-65.34 -76.1,-43.56 -131.8,-110.37 -167.11,-200.43 -35.31,-90.06 -52.97,-206.31 -52.97,-348.76zm321.45 1.77c0,76.52 4.57,139.79 13.7,189.83 9.13,50.03 28.31,89.47 57.53,118.31 29.22,28.84 72.45,43.27 129.67,43.27 52.37,0 93.46,-11.48 123.29,-34.44 29.83,-22.95 50.83,-60.04 63.01,-111.25 12.18,-51.21 18.26,-120.37 18.26,-207.49 0,-87.12 -6.39,-156.28 -19.17,-207.49 -12.79,-51.21 -34.09,-89.47 -63.93,-114.78 -29.83,-25.31 -70.31,-37.97 -121.46,-37.97 -49.91,0 -89.48,12.66 -118.71,37.97 -29.22,25.31 -50.23,63.86 -63.01,115.66 -12.78,51.8 -19.18,121.26 -19.18,208.38zm-1000.88 -333.76l-301.36 0 0 -266.64 913.21 0 0 266.64 -299.53 0 0 925.33 -312.32 0 0 -925.33zm-1665.67 335.52c0,-72.99 5.47,-146.57 16.43,-220.73 10.95,-74.17 32.88,-141.27 65.75,-201.31 32.88,-60.04 80.06,-108.9 141.55,-146.57 61.49,-37.67 142.76,-56.51 243.82,-56.51 118.12,0 247.17,17.66 387.21,52.98l-9.14 238.39c-60.87,-8.24 -114.45,-14.42 -160.72,-18.54 -46.27,-4.12 -86.45,-6.18 -120.55,-6.18 -47.48,0 -86.75,9.42 -117.8,28.25 -31.05,18.84 -56.01,44.74 -74.89,77.7 -18.86,32.96 -31.95,71.81 -39.26,116.55 -7.31,44.73 -10.96,92.41 -10.96,143.04 0,37.67 1.52,76.52 4.57,116.54 3.04,40.03 11.86,76.23 26.48,108.61 14.61,32.37 37.14,59.15 67.58,80.34 30.44,21.19 73.05,31.79 127.85,31.79 80.36,0 181.42,-7.06 303.18,-21.19l0 245.46c-136.38,28.25 -255.09,42.38 -356.15,42.38 -94.98,0 -174.12,-15.31 -237.43,-45.92 -63.32,-30.61 -114.15,-72.99 -152.51,-127.14 -38.35,-54.15 -65.44,-118.61 -81.28,-193.36 -15.82,-74.76 -23.73,-156.28 -23.73,-244.58zm-469.39 -602.16l312.31 0 0 1190.2 -312.31 0 0 -1190.2zm-610.02 1214.92c-65.76,0 -134.55,-7.06 -206.39,-21.19 -71.84,-14.13 -142.46,-28.25 -211.86,-42.38l32.87 -229.56c163.17,21.19 287.36,31.78 372.59,31.78 98.63,0 147.94,-35.9 147.94,-107.72 0,-17.66 -7.91,-33.25 -23.75,-46.79 -15.82,-13.54 -34.09,-25.31 -54.78,-35.32 -20.71,-10.01 -41.4,-18.54 -62.1,-25.61 -20.71,-7.06 -36.53,-12.95 -47.49,-17.65 -80.36,-23.55 -145.2,-47.68 -194.51,-72.41 -49.31,-24.72 -87.98,-51.5 -115.97,-80.34 -28.01,-28.85 -46.89,-59.75 -56.63,-92.71 -9.74,-32.96 -14.6,-69.46 -14.6,-109.49 0,-129.49 38.96,-226.32 116.88,-290.48 77.93,-64.16 183.25,-96.24 315.97,-96.24 25.57,0 51.45,0.88 77.62,2.65 26.18,1.76 55.4,4.7 87.67,8.82 32.27,4.12 69.1,9.72 110.5,16.78 41.39,7.06 90.71,15.89 147.93,26.49l-23.73 233.09c-47.5,-4.7 -103.8,-10.3 -168.95,-16.77 -65.14,-6.48 -130.59,-9.71 -196.34,-9.71 -103.5,0 -155.24,29.43 -155.24,88.29 0,17.66 12.48,34.14 37.44,49.45 24.96,15.3 52.96,29.13 84.01,41.49 31.05,12.36 59.97,22.96 86.76,31.79 26.78,8.83 42.01,14.42 45.66,16.78 42.61,14.12 83.1,31.78 121.46,52.97 38.35,21.19 71.84,46.5 100.44,75.93 28.62,29.44 51.45,63.87 68.49,103.31 17.06,39.44 25.58,85.05 25.58,136.85 0,58.87 -10.96,111.55 -32.88,158.05 -21.91,46.5 -52.66,86.23 -92.23,119.2 -39.58,32.96 -86.76,57.98 -141.55,75.05 -54.79,17.07 -115.06,25.6 -180.81,25.6zm-586.28 -1214.92l0 1190.2 -498.61 0 -211.87 -928.85 -10.96 0 0 928.85 -312.31 0 0 -1190.2 513.22 0 197.26 928.85 10.95 0 0 -928.85 312.32 0zm-2005.4 0l821.88 0 0 261.35 -509.57 0 0 204.84 399.98 0 0 261.35 -399.98 0 0 201.31 509.57 0 0 261.35 -821.88 0 0 -1190.2zm-1090.37 0l487.65 0c152.19,0 266.66,33.84 343.36,101.53 76.71,67.7 115.06,166.88 115.06,297.56 0,147.15 -52.35,264.29 -157.06,351.41l142.46 439.7 -343.37 0 -96.8 -367.3 -178.99 0 0 367.3 -312.31 0 0 -1190.2zm493.13 566.84c41.39,0 73.66,-14.71 96.8,-44.14 23.14,-29.43 34.7,-65.93 34.7,-109.49 0,-45.91 -12.48,-83.58 -37.44,-113.01 -24.97,-29.43 -58.15,-44.15 -99.54,-44.15l-175.34 0 0 310.79 180.82 0zm-1682.13 31.79c0,-142.45 17.36,-259 52.06,-349.64 34.7,-90.65 90.1,-158.64 166.19,-203.96 76.11,-45.33 177.48,-67.99 304.1,-67.99 127.86,0 230.13,22.66 306.84,67.99 76.72,45.32 132.42,113.31 167.12,203.96 34.7,90.64 52.06,207.19 52.06,349.64 0,136.56 -16.75,249.58 -50.23,339.05 -33.49,89.47 -88.88,157.75 -166.21,204.84 -77.31,47.09 -180.51,70.64 -309.58,70.64 -125.4,0 -226.16,-21.78 -302.26,-65.34 -76.11,-43.56 -131.81,-110.37 -167.12,-200.43 -35.31,-90.06 -52.97,-206.31 -52.97,-348.76zm321.45 1.77c0,76.52 4.57,139.79 13.7,189.83 9.13,50.03 28.31,89.47 57.54,118.31 29.21,28.84 72.44,43.27 129.66,43.27 52.37,0 93.46,-11.48 123.29,-34.44 29.83,-22.95 50.83,-60.04 63.01,-111.25 12.18,-51.21 18.26,-120.37 18.26,-207.49 0,-87.12 -6.39,-156.28 -19.17,-207.49 -12.79,-51.21 -34.09,-89.47 -63.93,-114.78 -29.83,-25.31 -70.31,-37.97 -121.46,-37.97 -49.91,0 -89.48,12.66 -118.71,37.97 -29.22,25.31 -50.23,63.86 -63.01,115.66 -12.78,51.8 -19.18,121.26 -19.18,208.38zm11033.92 -1782.34l0 608.81 -1435.32 0 0 -2717.45 629.33 0 0 2108.64 805.99 0zm-3801.75 608.81l493.15 -2717.45 1148.26 0 489.49 2717.45 -629.34 0 -55.2 -374.96 -761.83 0 -51.52 374.96 -633.01 0zm1332.27 -971.67l-180.34 -1181.33 -172.98 0 -180.33 1181.33 533.65 0zm-2642.47 -1136.98l-607.25 0 0 -608.8 1840.16 0 0 608.8 -603.57 0 0 2112.68 -629.34 0 0 -2112.68zm-2811.76 -608.8l629.34 0 0 1761.91c0,274.16 117.76,411.24 353.31,411.24 120.22,0 210.39,-34.94 270.5,-104.82 60.11,-69.89 90.17,-172.03 90.17,-306.42l0 -1761.91 629.33 0 0 1745.78c0,349.42 -80.35,607.46 -241.06,774.11 -160.71,166.65 -407.9,249.97 -741.58,249.97 -336.13,0 -585.17,-83.32 -747.11,-249.97 -161.93,-166.65 -242.9,-424.69 -242.9,-774.11l0 -1745.78zm-2204.5 0l982.64 0c306.69,0 537.33,77.27 691.9,231.83 154.58,154.55 231.86,381 231.86,679.36 0,335.99 -105.5,603.43 -316.51,802.33l287.07 1003.93 -691.9 0 -195.06 -838.62 -360.67 0 0 838.62 -629.33 0 0 -2717.45zm993.68 1294.21c83.42,0 148.44,-33.59 195.06,-100.79 46.62,-67.2 69.93,-150.52 69.93,-249.98 0,-104.82 -25.16,-190.84 -75.45,-258.03 -50.3,-67.2 -117.15,-100.8 -200.58,-100.8l-353.31 0 0 709.6 364.35 0zm-2149.3 -225.78c125.13,0 187.7,-73.92 187.7,-221.75 0,-75.26 -15.95,-134.39 -47.84,-177.4 -31.9,-43.01 -74.84,-64.51 -128.81,-64.51l-342.27 0 0 463.66 331.22 0zm3.68 1056.34c76.07,0 130.04,-17.47 161.94,-52.41 31.89,-34.95 47.85,-103.49 47.85,-205.63 0,-61.82 -11.05,-110.87 -33.13,-147.16 -22.08,-36.28 -77.29,-54.43 -165.61,-54.43l-345.95 0 0 459.63 334.9 0z"/>
  <rect class="fil0" x="-7.13" y="642.37" width="4524.99" height="4505.5" rx="370.51" ry="368.92"/>
  <path class="fil1" d="M3663.61 2834.82c56.89,-12.21 118.5,3.04 163.64,45.79 30.3,28.7 51.38,61.93 79.31,90.35 3.44,3.5 6.25,6.59 9.41,10.34l220.27 261.7c80.27,48.31 194.18,198.52 263.58,271.06 142.29,148.74 423.53,415.72 466.29,612.5 42.71,196.58 -69.92,391.75 -242.97,484.97 -200.6,108.06 -426.74,61.31 -582.23,-100.98 -1.32,-1.39 -2.43,-2.58 -3.71,-4l-816.52 -905.38c-42.8,-42.97 -71.67,-85.39 -97.3,-141.04 -19.37,-42.07 -21.24,-87.8 -8.47,-128.9 -7.53,-9.26 -14.25,-19.42 -20.08,-30.41 -9.62,-13.52 -27.75,-33.62 -47.69,-53.99 -388.6,165.6 -710.35,219.66 -1152.08,108.5 -9.55,-2.4 -18.75,-5.5 -27.53,-9.23 -0.33,-0.09 -0.66,-0.18 -0.98,-0.27 -546.68,-153.89 -1000.36,-584.48 -1152.93,-1132.55 -21.94,-78.81 -31.86,-107.07 -30.95,-177.01 -75.76,-219.6 -30.11,-549.36 31.34,-762.01 77.3,-267.52 230.69,-508.09 425.37,-706.22 193.39,-196.81 454.4,-345.21 717.66,-426.21 324.16,-99.75 665.57,-103.71 989.17,1.2 382.41,123.97 747.82,412.13 947.49,759.49 21.07,36.65 42.87,75.06 58.99,114.19 4.28,10.38 7.67,21.1 12.88,31.06 1.92,3.69 3.46,6.88 5.14,10.69l46.73 105.81c2.15,4.85 3.8,9.06 5.52,14.07 9.76,28.29 16.63,47.14 19.53,70.01 33.14,66.01 40.89,146.79 49.8,218.56 10.67,86.05 21.2,163.8 20.85,251.51 -0.91,227.92 -51.44,495.33 -147.05,702.49 -48.28,104.6 -104.4,196.82 -175.05,287.73 -22.19,28.54 -45.29,56.39 -68.09,84.46 13.73,13.62 27.83,27.1 40.66,41.72z"/>
  <path class="fil0" d="M1915.98 3171.76l16.2 -58.3c33.65,30.36 9.79,1.75 7.4,66.49 454.02,114.26 756.44,31.51 1141.94,-146.51 44.39,33.25 154.66,142.18 173.57,182.12l272.31 -261.03c-18.86,-21.78 -49.21,-48.79 -69.03,-71.67 -24.13,-27.84 -46.28,-65.91 -62.15,-91.07 100.37,-146.45 201.09,-221.73 304.79,-446.42 82.67,-179.13 129.64,-422.53 130.45,-627.67 0.37,-91.26 -9.81,-150.62 -19.48,-228.62 -4.06,-32.75 -14.7,-157.73 -46.7,-178.12 -39.98,-25.47 1.88,-8.8 -14.93,-1.19 1.43,-3.33 5.64,-8.16 6.23,-9.72 4.05,-10.59 4.49,-2.67 5.43,-17.1 1.3,-20.24 -2.17,-20.63 -10.87,-45.86l-46.73 -105.81c-23.14,-44.27 -6.88,-31.9 -68.39,-138.9 -168.12,-292.48 -489.07,-561.62 -846.05,-677.35 -618.37,-200.46 -1219.49,72.95 -1520.73,379.52 -155.9,158.65 -306.1,371.78 -380.64,629.73 -49.22,170.34 -101.93,499.34 -25.32,675.92 17.61,40.59 4.03,-32.2 1.94,11.23 -3.67,76.36 -2.18,61.36 23.48,153.53 133.64,480.12 534.26,868.02 1027.28,1006.8zm-207.47 -2507.15c-7.42,-10.05 -3.12,-5.32 -10.21,-22.53l-11.58 -29.63c-26.65,32.6 -8.29,20.54 -13.16,72.15 -256.66,145.13 -456.12,417.88 -549.01,700.93 -324.33,988.27 792.04,2036.4 1842.59,1433.17 417.09,-239.5 670.04,-731.74 616.08,-1231.56 -30.67,-284.07 -136.34,-450.48 -287.07,-647.23 -235.44,-307.34 -701.16,-494.19 -1116.81,-433.65 -164.74,24 -350.27,80.83 -470.83,158.35z"/>
  <path class="fil0" d="M3288.53 3384.73c18.01,39.1 34.68,63.05 64.04,91.93l819.81 909.03c233.62,243.86 565.83,7.74 516.16,-220.89 -30.22,-139.09 -315.65,-416.61 -420.26,-525.97 -35.93,-37.56 -192.98,-221.7 -226.03,-241.02 -21.05,-12.31 -19.66,3.49 -23.33,-12.58l-242.2 -287.74c-25.76,-26.21 -52.14,-64.46 -74.7,-85.82l-149.26 142.11c-63.97,45.6 -188.23,191.24 -264.23,230.95z"/>
  <path class="fil1" d="M2225.12 2516.22l-4.12 23.49 -101.6 -2.37c-79.13,-1.84 -158.36,0.89 -237.5,0.78 -78.76,-0.12 -157.51,-0.35 -236.26,-0.08 -52.72,0.18 -99.31,-5.35 -148.49,-25.05 -140.19,-56.16 -205.69,-183.4 -205.67,-329.42 0.02,-159.39 -1,-318.82 -1.17,-478.22 -0.11,-103.98 -0.16,-207.97 0.37,-311.94 0.18,-35.3 -2.62,-120.97 4.27,-165.78 22.01,-141.32 109.24,-237.47 232.18,-273.25 0.18,-25.75 0.45,-51.49 0.45,-77.24 0,-202 -5.61,-317.32 97.67,-502.66 48.16,-86.43 119.28,-163.78 198.22,-223.39 21.05,-15.9 42.86,-30.75 65.68,-44 64.02,-37.15 182.12,-93.25 254.89,-88.86l132.66 8 -23.55 130.23c-10.28,56.85 -16.29,114.68 -24.51,171.87 -7.56,52.56 -6.3,101.57 -46.93,142.92 -22.24,22.64 -54.16,33.94 -80.34,53.64 -28.55,21.49 -48.93,47.09 -68.23,76.99 -8.58,13.3 -15.52,28.87 -21.22,43.7 -5.98,19.76 -9.26,39.06 -14.62,57.88 -0.36,24.4 -3.2,48.93 -3.13,73.06l0.46 162.34 407.38 -0.29 -17.81 59.68 31.04 -69.61 269.76 21.82 9.8 -117.97c4.62,-55.54 12.44,-109.18 -0.2,-164.24 -15.97,-69.55 -66.46,-137.58 -128.75,-172.72 -30.45,-17.18 -73.54,-35.66 -109.29,-35.89l-152.55 -1 120.6 -451.97 84.37 -5.75c78.62,-5.36 204.47,46.17 275.12,83.2 85.09,44.61 169.94,117.71 228.31,193.65 98.98,128.78 144.21,258.89 156.05,420.35l0.23 3.05 0.06 3.06c1.49,70.78 -6.12,139.76 -12.18,210.06l-6.93 80.42c23.77,5.6 47.8,14.11 74.62,28.21 134.27,70.59 186.56,201.59 172.86,347.52 -25.08,267.2 -43.12,535.01 -68.03,802.23 -13.16,141.09 -16.41,246.11 -139.24,340.01 -115.59,88.37 -240.69,66.75 -374.43,53.98 -161.25,-15.38 -322.9,-26.2 -484.26,-40.39 -35.1,-3.09 -70.62,-7.31 -106.04,-10.05z"/>
  <path class="fil0" d="M2812.51 842.19l-19.52 235 -303.8 -24.58 -171.84 385.31c15.52,-7.36 30.74,-17.54 46.38,-26.98l139.54 -81.82 -324.78 1066.91c51.67,1.18 112.62,8.65 163.06,13.09 161.35,14.19 323.52,25.05 485.13,40.47 108.98,10.4 211.26,30.96 291.24,-30.19 83.21,-63.62 81.83,-131.81 93.56,-257.6 24.83,-266.4 43.13,-537.01 68.04,-802.3 9.44,-100.57 -20.82,-185.48 -110.41,-232.58 -48.6,-25.54 -88.39,-24.03 -146.83,-29.92l16.61 -192.76c5.29,-66.13 13.19,-130.2 11.77,-197.56 -10.44,-142.33 -49,-249.38 -132.05,-357.43 -47.11,-61.3 -119.08,-124.13 -189.54,-161.06 -50.12,-26.28 -162.38,-73.32 -212.02,-69.94l-59.71 223.78c60.78,0.4 122.79,26.38 166.74,51.18 90.04,50.8 162.02,145.84 185.66,248.84 16.44,71.59 8.56,127.57 2.77,200.14zm-934.04 -157.81c6.64,-9.41 16.42,-63.14 22.28,-78.59 9.14,-24.11 20.26,-47.71 33.03,-67.49 28.71,-44.48 57.8,-78.2 96.36,-107.22 86.38,-65.03 65.46,-7.35 81.58,-119.42 8.29,-57.66 15.01,-119.8 25.18,-176.04 -39.04,-2.35 -142.86,46.73 -188.26,73.08 -19.01,11.03 -36.84,23.29 -53.79,36.09 -60.92,46 -123.89,110.62 -166.32,186.75 -93.16,167.19 -82.84,266.58 -82.84,445.6 0,59.2 -1.51,120.4 0.19,179.35 -127.99,-1.91 -214.99,65.29 -234.44,189.26 -5.59,18.69 -1.84,893.96 -1.84,937.84 -0.02,103.58 41.38,184.13 131.63,220.29 33.39,13.37 64.31,16.69 104,16.55 78.92,-0.26 157.92,-0.04 236.84,0.08 79.7,0.11 160.25,-2.6 240.09,-0.74l158.92 -904.93 -231.61 176.82 96.29 -316.17c17.63,-53.93 32.63,-110.56 47.7,-160.41l25.79 -78.17c8.14,-26.83 16.63,-54.56 24.41,-80.62l-366.81 0.26 -0.8 -279.7c0,-23.44 4.72,-74.95 2.42,-92.47z"/>
  <path class="fil1" d="M2233.37 88.19l-67.96 258.46 -97.85 162.39c0,0 -61.15,96.07 -10.87,117.72 50.29,21.65 352,36.54 402.28,37.89 50.29,1.36 201.14,-48.71 206.58,-81.19 5.43,-32.48 19.02,-92.01 -23.11,-112.31 -42.13,-20.3 -74.75,-37.89 -120.95,-43.31 -46.21,-5.41 -96.5,-8.11 -104.65,-24.35 -8.15,-16.24 -19.03,-24.36 -14.95,-89.31 4.08,-64.96 12.23,-119.08 8.15,-139.38 -4.07,-20.3 -20.85,-35.39 -20.85,-35.39l-155.82 -51.22z"/>
  <path class="fil1" d="M300.17 3634.02l480.31 0c129.01,0 223.18,28.2 282.49,84.62 59.33,56.42 88.98,148.82 88.98,277.21 0,60.95 -7.77,112.51 -23.32,154.66 -15.56,42.15 -45.21,82.03 -88.97,119.63 42.61,23.35 74.28,57.4 95.01,102.14 20.74,44.74 31.11,103.42 31.11,176.06 0,130.98 -33.41,229.55 -100.21,295.69 -66.81,66.14 -162.98,99.22 -288.54,99.22l-476.86 0 0 -1309.23zm2095.77 289.86l-285.08 0 0 -293.75 863.89 0 0 293.75 -283.36 0 0 1019.37 -295.45 0 0 -1019.37zm-842.52 -5.84l0 317.09 378.38 0 0 287.91 -378.38 0 0 418.26 -295.44 0 0 -1311.17 768.85 0 0 287.91 -473.41 0zm-793.66 227.61c58.73,0 88.11,-35.67 88.11,-107 0,-36.31 -7.49,-64.84 -22.47,-85.6 -14.97,-20.75 -35.13,-31.12 -60.47,-31.12l-160.68 0 0 223.72 155.51 0zm1.71 509.68c35.71,0 61.06,-8.43 76.03,-25.29 14.97,-16.86 22.46,-49.93 22.46,-99.21 0,-29.83 -5.17,-53.5 -15.55,-71.01 -10.36,-17.51 -36.28,-26.26 -77.74,-26.26l-162.42 0 0 221.77 157.22 0z"/>
 </g>
</svg>
