<?xml version="1.0" encoding="UTF-8"?>
<!DOCTYPE svg PUBLIC "-//W3C//DTD SVG 1.1//EN" "http://www.w3.org/Graphics/SVG/1.1/DTD/svg11.dtd">
<!-- Creator: CorelDRAW -->
<svg xmlns="http://www.w3.org/2000/svg" xml:space="preserve" width="447.293mm" height="127.207mm" version="1.1" style="shape-rendering:geometricPrecision; text-rendering:geometricPrecision; image-rendering:optimizeQuality; fill-rule:evenodd; clip-rule:evenodd"
viewBox="0 0 44729.26 12720.72"
 xmlns:xlink="http://www.w3.org/1999/xlink"
 xmlns:xodm="http://www.corel.com/coreldraw/odm/2003">
 <defs>
  <style type="text/css">
   <![CDATA[
    .fil0 {fill:#1C97A6}
   ]]>
  </style>
 </defs>
 <g id="Layer_x0020_1">
  <metadata id="CorelCorpID_0Corel-Layer"/>
  <path class="fil0" d="M13708.66 1346.88l2587.56 0c694.98,0 1202.26,147.85 1521.81,443.56 319.57,295.71 479.36,780.05 479.36,1453.04 0,319.5 -41.89,589.71 -125.66,810.64 -83.77,220.93 -243.55,429.97 -479.34,627.1 229.59,122.37 400.23,300.81 511.92,535.33 111.69,234.53 167.54,542.13 167.54,922.81 0,686.58 -179.94,1203.22 -539.85,1549.91 -359.9,346.69 -878.04,520.04 -1554.4,520.04l-2568.94 0 0 -6862.43zm31007.35 10637.45l0 674.37 -1801.46 0 0 -3010.1 789.87 0 0 2335.73 1011.59 0zm-4808.49 -821.75c0,-360.26 43.87,-655.01 131.64,-884.27 87.76,-229.25 227.87,-401.2 420.34,-515.82 192.46,-114.63 448.82,-171.95 769.08,-171.95 323.34,0 582.01,57.32 776.01,171.95 194,114.62 334.89,286.57 422.65,515.82 87.76,229.26 131.64,524.01 131.64,884.27 0,345.38 -42.34,631.2 -127.02,857.48 -84.68,226.28 -224.8,398.96 -420.34,518.06 -195.54,119.09 -456.52,178.64 -782.94,178.64 -317.18,0 -572,-55.08 -764.47,-165.24 -192.46,-110.17 -333.35,-279.13 -422.64,-506.9 -89.3,-227.76 -133.95,-521.78 -133.95,-882.04zm812.96 4.47c0,193.53 11.54,353.56 34.64,480.1 23.09,126.53 71.59,226.27 145.5,299.22 73.91,72.94 183.22,109.42 327.96,109.42 132.41,0 236.34,-29.03 311.78,-87.09 75.46,-58.06 128.58,-151.84 159.37,-281.36 30.8,-129.51 46.19,-304.43 46.19,-524.76 0,-220.32 -16.17,-395.24 -48.5,-524.75 -32.33,-129.52 -86.23,-226.28 -161.67,-290.3 -75.45,-64.01 -177.83,-96.01 -307.17,-96.01 -126.25,0 -226.34,32 -300.24,96.01 -73.91,64.02 -127.03,161.53 -159.36,292.53 -32.33,131 -48.5,306.67 -48.5,526.99zm-3736.86 -4.47c0,-360.26 43.87,-655.01 131.64,-884.27 87.76,-229.25 227.87,-401.2 420.34,-515.82 192.46,-114.63 448.82,-171.95 769.08,-171.95 323.34,0 582.01,57.32 776.01,171.95 194,114.62 334.89,286.57 422.65,515.82 87.76,229.26 131.64,524.01 131.64,884.27 0,345.38 -42.34,631.2 -127.02,857.48 -84.68,226.28 -224.8,398.96 -420.34,518.06 -195.54,119.09 -456.52,178.64 -782.94,178.64 -317.18,0 -572,-55.08 -764.47,-165.24 -192.45,-110.17 -333.34,-279.13 -422.64,-506.9 -89.3,-227.76 -133.95,-521.78 -133.95,-882.04zm812.96 4.47c0,193.53 11.54,353.56 34.64,480.1 23.09,126.53 71.59,226.27 145.5,299.22 73.91,72.94 183.22,109.42 327.96,109.42 132.41,0 236.34,-29.03 311.79,-87.09 75.45,-58.06 128.57,-151.84 159.36,-281.36 30.8,-129.51 46.19,-304.43 46.19,-524.76 0,-220.32 -16.17,-395.24 -48.5,-524.75 -32.33,-129.52 -86.23,-226.28 -161.67,-290.3 -75.45,-64.01 -177.83,-96.01 -307.17,-96.01 -126.25,0 -226.34,32 -300.24,96.01 -73.91,64.02 -127.03,161.53 -159.36,292.53 -32.33,131 -48.5,306.67 -48.5,526.99zm-2531.28 -844.08l-762.16 0 0 -674.37 2309.56 0 0 674.37 -757.53 0 0 2340.2 -789.87 0 0 -2340.2zm-4212.63 848.55c0,-184.6 13.86,-370.68 41.57,-558.26 27.72,-187.57 83.15,-357.28 166.29,-509.12 83.15,-151.85 202.47,-275.41 357.99,-370.68 155.5,-95.28 361.05,-142.92 616.64,-142.92 298.7,0 625.12,44.66 979.26,133.98l-23.09 602.92c-153.98,-20.84 -289.47,-36.47 -406.49,-46.9 -117.02,-10.42 -218.63,-15.63 -304.86,-15.63 -120.1,0 -219.41,23.82 -297.94,71.46 -78.52,47.64 -141.65,113.14 -189.37,196.5 -47.73,83.37 -80.84,181.62 -99.31,294.76 -18.49,113.14 -27.72,233.72 -27.72,361.75 0,95.27 3.84,193.53 11.55,294.76 7.69,101.23 30.01,192.78 66.97,274.66 36.95,81.87 93.92,149.61 170.91,203.2 76.99,53.59 184.77,80.39 323.34,80.39 203.24,0 458.83,-17.86 766.77,-53.59l0 620.77c-344.9,71.46 -645.14,107.19 -900.73,107.19 -240.19,0 -440.35,-38.71 -600.48,-116.12 -160.13,-77.41 -288.7,-184.59 -385.69,-321.55 -97.01,-136.96 -165.53,-299.97 -205.56,-489.03 -40.03,-189.06 -60.05,-395.24 -60.05,-618.54zm-1187.11 -1522.92l789.87 0 0 3010.1 -789.87 0 0 -3010.1zm-1542.79 3072.62c-166.28,0 -340.27,-17.86 -521.96,-53.59 -181.68,-35.73 -360.29,-71.45 -535.82,-107.18l83.15 -580.59c412.65,53.6 726.75,80.39 942.3,80.39 249.44,0 374.15,-90.81 374.15,-272.42 0,-44.66 -20.01,-84.11 -60.05,-118.35 -40.02,-34.24 -86.23,-64.02 -138.57,-89.32 -52.35,-25.31 -104.7,-46.9 -157.05,-64.76 -52.35,-17.87 -92.38,-32.75 -120.1,-44.66 -203.24,-59.55 -367.22,-120.58 -491.93,-183.11 -124.71,-62.52 -222.5,-130.26 -293.31,-203.2 -70.83,-72.95 -118.56,-151.1 -143.2,-234.47 -24.64,-83.36 -36.95,-175.66 -36.95,-276.89 0,-327.51 98.54,-572.4 295.62,-734.66 197.09,-162.27 463.45,-243.4 799.11,-243.4 64.66,0 130.1,2.23 196.31,6.7 66.21,4.47 140.11,11.91 221.71,22.33 81.61,10.42 174.77,24.56 279.47,42.43 104.7,17.86 229.41,40.19 374.14,66.99l-60.04 589.51c-120.1,-11.91 -262.52,-26.05 -427.27,-42.43 -164.75,-16.37 -330.27,-24.56 -496.56,-24.56 -261.75,0 -392.62,74.43 -392.62,223.3 0,44.66 31.56,86.35 94.68,125.05 63.14,38.71 133.96,73.69 212.49,104.95 78.52,31.26 151.65,58.06 219.41,80.39 67.74,22.33 106.23,36.47 115.48,42.43 107.77,35.73 210.16,80.39 307.17,133.98 96.99,53.59 181.68,117.6 254.05,192.04 72.37,74.43 130.1,161.52 173.21,261.26 43.12,99.74 64.67,215.11 64.67,346.12 0,148.86 -27.72,282.1 -83.14,399.7 -55.43,117.61 -133.19,218.1 -233.27,301.46 -100.08,83.37 -219.41,146.64 -357.98,189.81 -138.57,43.17 -291.01,64.75 -457.3,64.75zm-1482.73 -3072.62l0 3010.1 -1261.02 0 -535.81 -2349.13 -27.72 0 0 2349.13 -789.87 0 0 -3010.1 1297.98 0 498.86 2349.13 27.71 0 0 -2349.13 789.87 0zm-5071.79 0l2078.6 0 0 660.97 -1288.73 0 0 518.06 1011.59 0 0 660.97 -1011.59 0 0 509.13 1288.73 0 0 660.97 -2078.6 0 0 -3010.1zm-2757.61 0l1233.31 0c384.93,0 674.39,85.6 868.39,256.8 194.01,171.2 291.01,422.04 291.01,752.52 0,372.17 -132.41,668.42 -397.24,888.74l360.29 1112.04 -868.4 0 -244.81 -928.93 -452.68 0 0 928.93 -789.87 0 0 -3010.1zm1247.17 1433.59c104.7,0 186.3,-37.21 244.81,-111.65 58.51,-74.43 87.76,-166.73 87.76,-276.89 0,-116.12 -31.55,-211.39 -94.69,-285.82 -63.13,-74.44 -147.04,-111.65 -251.74,-111.65l-443.44 0 0 786.01 457.3 0zm-4254.2 80.39c0,-360.26 43.87,-655.01 131.64,-884.27 87.76,-229.25 227.87,-401.2 420.34,-515.82 192.46,-114.63 448.82,-171.95 769.08,-171.95 323.34,0 582.01,57.32 776.01,171.95 194,114.62 334.89,286.57 422.65,515.82 87.76,229.26 131.64,524.01 131.64,884.27 0,345.38 -42.34,631.2 -127.02,857.48 -84.68,226.28 -224.8,398.96 -420.34,518.06 -195.54,119.09 -456.52,178.64 -782.94,178.64 -317.18,0 -571.99,-55.08 -764.46,-165.24 -192.46,-110.17 -333.35,-279.13 -422.65,-506.9 -89.3,-227.76 -133.95,-521.78 -133.95,-882.04zm812.96 4.47c0,193.53 11.55,353.56 34.64,480.1 23.1,126.53 71.59,226.27 145.5,299.22 73.91,72.94 183.23,109.42 327.96,109.42 132.41,0 236.35,-29.03 311.79,-87.09 75.45,-58.06 128.57,-151.84 159.36,-281.36 30.8,-129.51 46.19,-304.43 46.19,-524.76 0,-220.32 -16.17,-395.24 -48.5,-524.75 -32.33,-129.52 -86.23,-226.28 -161.67,-290.3 -75.45,-64.01 -177.83,-96.01 -307.17,-96.01 -126.25,0 -226.34,32 -300.24,96.01 -73.91,64.02 -127.03,161.53 -159.36,292.53 -32.33,131 -48.5,306.67 -48.5,526.99zm-2286.47 -857.48l0 727.96 1011.59 0 0 660.98 -1011.59 0 0 960.19 -789.87 0 0 -3010.1 2055.51 0 0 660.97 -1265.64 0zm30192.03 -3650.17l0 1539.71 -3630.02 0 0 -6872.62 1591.63 0 0 5332.91 2038.39 0zm-9614.91 1539.71l1247.24 -6872.62 2904.02 0 1237.93 6872.62 -1591.63 0 -139.61 -948.3 -1926.71 0 -130.3 948.3 -1600.94 0zm3369.41 -2457.42l-456.08 -2987.66 -437.47 0 -456.08 2987.66 1349.63 0zm-6682.98 -2875.49l-1535.78 0 0 -1539.71 4653.88 0 0 1539.71 -1526.47 0 0 5343.11 -1591.63 0 0 -5343.11zm-7111.13 -1539.71l1591.62 0 0 4455.99c0,693.38 297.85,1040.07 893.55,1040.07 304.06,0 532.1,-88.38 684.13,-265.12 152.02,-176.74 228.03,-435.06 228.03,-774.95l0 -4455.99 1591.63 0 0 4415.2c0,883.72 -203.22,1536.31 -609.66,1957.78 -406.44,421.46 -1031.61,632.2 -1875.51,632.2 -850.11,0 -1479.94,-210.74 -1889.48,-632.2 -409.55,-421.47 -614.31,-1074.06 -614.31,-1957.78l0 -4415.2zm-5575.35 0l2485.17 0c775.65,0 1358.94,195.43 1749.86,586.31 390.93,390.88 586.39,963.6 586.39,1718.16 0,849.73 -266.82,1526.11 -800.46,2029.15l725.99 2539 -1749.85 0 -493.32 -2120.93 -912.15 0 0 2120.93 -1591.63 0 0 -6872.62zm2513.09 3273.16c210.98,0 375.42,-84.97 493.32,-254.92 117.9,-169.95 176.85,-380.68 176.85,-632.2 0,-265.11 -63.61,-482.65 -190.82,-652.59 -127.2,-169.95 -296.29,-254.92 -507.27,-254.92l-893.54 0 0 1794.63 921.46 0zm-5435.74 -571.02c316.47,0 474.7,-186.94 474.7,-560.82 0,-190.34 -40.33,-339.89 -121,-448.66 -80.66,-108.76 -189.26,-163.15 -325.77,-163.15l-865.62 0 0 1172.63 837.69 0zm9.32 2671.55c192.35,0 328.86,-44.18 409.54,-132.55 80.66,-88.38 120.99,-261.72 120.99,-520.04 0,-156.35 -27.92,-280.41 -83.77,-372.18 -55.84,-91.77 -195.46,-137.66 -418.84,-137.66l-874.93 0 0 1162.43 847.01 0z"/>
  <path class="fil0" d="M925.86 1326.5l1791.35 0c-408.82,462.46 -728.87,1004.01 -900.55,1598.09 -155.41,537.82 -270.88,1371.8 -79.26,1927.19 -2.31,176.9 22.79,248.36 78.27,447.67 385.85,1386.13 1533.26,2475.12 2915.85,2864.32 0.82,0.22 1.65,0.46 2.47,0.68 22.23,9.43 45.48,17.26 69.64,23.34 1117.17,281.14 1930.9,144.42 2913.68,-274.4 50.44,51.5 96.3,102.34 120.63,136.53 14.75,27.81 31.73,53.5 50.78,76.91 -32.29,103.96 -27.56,219.62 21.43,326 64.82,140.74 137.82,248.04 246.07,356.71l2065.04 2289.77c3.24,3.59 6.05,6.61 9.4,10.11 325.59,339.86 773.72,479.37 1206.24,362.17l0 316.66c0,513.17 -419.85,933.01 -933.01,933.01l-9578.01 0c-513.16,0 -933.01,-419.84 -933.01,-933.01l0 -9528.72c0,-513.16 419.85,-933.01 933.01,-933.01l-0.01 -0.01 -0.01 -0.01zm8200.32 0l1377.69 0c513.16,0 933.01,419.85 933.01,933.01l0 6637.23c-110.61,-114.84 -214.22,-219.39 -298.53,-307.52 -175.52,-183.47 -463.62,-563.36 -666.61,-685.54l-557.11 -661.87c-7.97,-9.48 -15.09,-17.3 -23.77,-26.13 -70.65,-71.89 -123.97,-155.92 -200.61,-228.52 -114.14,-108.12 -269.96,-146.69 -413.85,-115.79 -32.45,-37 -68.1,-71.09 -102.82,-105.52 57.66,-71 116.08,-141.44 172.19,-213.62 178.7,-229.91 320.62,-463.15 442.71,-727.68 241.82,-523.94 369.62,-1200.24 371.91,-1776.66 0.88,-221.81 -25.74,-418.46 -52.74,-636.08 -22.51,-181.51 -42.13,-385.83 -125.94,-552.76 -7.32,-57.83 -24.7,-105.51 -49.38,-177.06 -4.37,-12.67 -8.54,-23.32 -13.96,-35.59l-118.18 -267.59c-4.26,-9.63 -8.15,-17.71 -13.02,-27.03 -13.17,-25.21 -21.75,-52.32 -32.56,-78.57 -40.77,-98.96 -95.92,-196.1 -149.19,-288.79 -132.96,-231.31 -295.02,-452.23 -479.24,-657.94l0 0.01 0 0.01zm-8356.16 7566.09l1214.76 0c326.28,0 564.42,71.33 714.43,214.01 150.03,142.69 225.04,376.37 225.04,701.09 0,154.16 -19.67,284.54 -58.99,391.15 -39.34,106.6 -114.34,207.45 -225.01,302.56 107.75,59.05 187.87,145.15 240.29,258.31 52.45,113.16 78.68,261.57 78.68,445.26 0,331.28 -84.5,580.55 -253.45,747.83 -168.96,167.28 -412.19,250.93 -729.73,250.93l-1206.02 0 0 -3311.12 0 -0.01 0 -0.01zm5300.37 733.08l-721 0 0 -742.92 2184.84 0 0 742.92 -716.63 0 0 2578.06 -747.21 0 0 -2578.06zm-2130.79 -14.77l0 801.95 956.95 0 0 728.15 -956.95 0 0 1057.8 -747.21 0 0 -3316.03 1944.5 0 0 728.15 -1197.29 0 0 -0.01 0 -0.01zm-2007.25 575.63c148.56,0 222.85,-90.21 222.85,-270.61 0,-91.83 -18.93,-163.99 -56.82,-216.48 -37.86,-52.49 -88.85,-78.72 -152.94,-78.72l-406.37 0 0 565.81 393.28 0zm4.35 1289.02c90.31,0 154.4,-21.32 192.29,-63.97 37.86,-42.63 56.79,-126.28 56.79,-250.9 0,-75.45 -13.09,-135.32 -39.32,-179.6 -26.21,-44.27 -91.76,-66.4 -196.63,-66.4l-410.76 0 0 560.87 397.63 0z"/>
  <path class="fil0" d="M4856.52 7723.5l40.98 -147.45c85.11,76.8 24.75,4.45 18.72,168.17 1148.26,288.96 1913.1,79.69 2888.05,-370.55 112.27,84.09 391.16,359.6 438.98,460.61l688.69 -660.15c-47.71,-55.09 -124.45,-123.42 -174.59,-181.26 -61.02,-70.42 -117.04,-166.72 -157.19,-230.34 253.85,-370.39 508.58,-560.78 770.84,-1129.02 209.1,-453.05 327.88,-1068.63 329.94,-1587.43 0.92,-230.8 -24.81,-380.93 -49.28,-578.2 -10.27,-82.82 -37.18,-398.92 -118.1,-450.48 -101.12,-64.42 4.75,-22.25 -37.76,-3.01 3.61,-8.41 14.25,-20.63 15.77,-24.6 10.22,-26.77 11.35,-6.73 13.71,-43.22 3.3,-51.21 -5.48,-52.18 -27.5,-116.01l-118.18 -267.59c-58.51,-111.95 -17.39,-80.67 -172.94,-351.29 -287.48,-500.14 -751.7,-973.23 -1301.27,-1317.72 66.16,177.25 103.48,365.05 118.78,573.51l0.56 7.72 0.17 7.74c1.74,82.88 -1.46,164.78 -6.91,246.49 122.75,107.79 233.47,224.71 329.11,349.55 381.2,497.62 648.45,918.48 726.02,1636.92 136.47,1264.08 -503.26,2508.98 -1558.12,3114.7 -2656.91,1525.63 -5480.3,-1125.19 -4660.03,-3624.58 188.2,-573.5 549.43,-1130.24 1019.41,-1517.74 2.04,-308.53 19.36,-544.24 145.03,-834.47 -314.77,178.96 -586.14,388.54 -798.52,604.68 -394.27,401.24 -774.14,940.26 -962.65,1592.61 -124.49,430.81 -257.79,1262.88 -64.05,1709.48 44.53,102.65 10.21,-81.44 4.92,28.4 -9.29,193.11 -5.53,155.16 59.36,388.28 338.01,1214.26 1351.19,2195.28 2598.07,2546.27l-0.01 -0.01 -0.01 -0.01z"/>
  <path class="fil0" d="M8327.79 8262.12c45.55,98.9 87.73,159.45 161.96,232.5l2073.36 2299c590.86,616.75 1431.05,19.58 1305.42,-558.63 -76.43,-351.77 -798.29,-1053.65 -1062.88,-1330.23 -90.87,-94.98 -488.06,-560.69 -571.63,-609.56 -53.25,-31.14 -49.73,8.83 -59.02,-31.81l-612.52 -727.72c-65.16,-66.29 -131.89,-163.02 -188.92,-217.05l-377.5 359.42c-161.78,115.32 -476.06,483.66 -668.27,584.08z"/>
  <path class="fil0" d="M7123.92 1831.85l-49.38 594.35 -768.33 -62.16 -434.59 974.48c39.23,-18.63 77.74,-44.37 117.3,-68.26l352.9 -206.91 -821.41 2698.29c130.69,2.99 284.83,21.88 412.42,33.1 408.05,35.89 818.2,63.37 1226.93,102.37 275.6,26.3 534.27,78.28 736.55,-76.36 210.46,-160.91 206.95,-333.35 236.62,-651.49 62.8,-673.74 109.09,-1358.14 172.07,-2029.08 23.88,-254.34 -52.66,-469.09 -279.23,-588.2 -122.9,-64.61 -223.54,-60.79 -371.33,-75.67l41.99 -487.53c13.4,-167.24 33.36,-329.27 29.79,-499.62 -26.41,-359.98 -123.93,-630.72 -333.97,-903.99 -119.15,-155.02 -301.17,-313.92 -479.37,-407.33 -126.77,-66.46 -410.68,-185.44 -536.21,-176.87l-151.02 565.95c153.72,1.01 310.54,66.72 421.71,129.44 227.72,128.47 409.74,368.83 469.55,629.32 41.57,181.08 21.65,322.65 7.01,506.17zm-2362.24 -399.1c16.78,-23.79 41.51,-159.69 56.33,-198.76 23.13,-60.97 51.24,-120.66 83.54,-170.7 72.62,-112.49 146.18,-197.75 243.7,-271.16 218.47,-164.46 165.57,-18.59 206.31,-302.01 20.98,-145.84 37.99,-303 63.71,-445.22 -98.74,-5.95 -361.32,118.18 -476.14,184.82 -48.07,27.89 -93.17,58.89 -136.04,91.27 -154.08,116.35 -313.33,279.77 -420.62,472.31 -235.63,422.82 -209.51,674.21 -209.51,1126.95 0,149.73 -3.82,304.51 0.46,453.59 -323.68,-4.83 -543.73,165.13 -592.91,478.65 -14.13,47.29 -4.65,2260.9 -4.66,2371.87 -0.04,261.97 104.66,465.7 332.92,557.14 84.43,33.82 162.64,42.21 263.03,41.87 199.57,-0.68 399.38,-0.11 598.96,0.18 201.58,0.29 405.31,-6.56 607.21,-1.87l401.92 -2288.65 -585.74 447.2 243.51 -799.62c44.59,-136.38 82.52,-279.6 120.65,-405.69l65.21 -197.69c20.58,-67.87 42.08,-137.97 61.75,-203.9l-927.7 0.67 -2.01 -707.39c0,-59.28 11.92,-189.56 6.12,-233.86z"/>
 </g>
</svg>
