<?xml version="1.0" encoding="UTF-8"?>
<!DOCTYPE svg PUBLIC "-//W3C//DTD SVG 1.1//EN" "http://www.w3.org/Graphics/SVG/1.1/DTD/svg11.dtd">
<!-- Creator: CorelDRAW -->
<svg xmlns="http://www.w3.org/2000/svg" xml:space="preserve" width="525.048mm" height="115.345mm" version="1.1" style="shape-rendering:geometricPrecision; text-rendering:geometricPrecision; image-rendering:optimizeQuality; fill-rule:evenodd; clip-rule:evenodd"
viewBox="0 0 52504.84 11534.5"
 xmlns:xlink="http://www.w3.org/1999/xlink"
 xmlns:xodm="http://www.corel.com/coreldraw/odm/2003">
 <defs>
  <style type="text/css">
   <![CDATA[
    .fil0 {fill:#24272A}
    .fil1 {fill:#CE0E2D}
    .fil2 {fill:white}
   ]]>
  </style>
 </defs>
 <g id="Layer_x0020_1">
  <metadata id="CorelCorpID_0Corel-Layer"/>
  <g id="_2497193389344">
   <path class="fil0" d="M38015.88 9606.7l987.09 8.5 1270 -3716.12c296.25,329.87 1129.68,3045.08 1337.06,3710.11l1002.98 7.44 1988.59 -5786.08 -1191.08 -28.05c-179.82,484.59 -1067.56,3527.89 -1325.88,3866.89l-1279.41 -3855.53 -932.7 -16.33c-273.8,551.96 -715,2114.73 -980.61,2891.25 -86.67,253.42 -208.2,758.09 -388.8,961.94l-1258.69 -3855.37 -1211.07 14.48 1982.52 5796.87z"/>
   <path class="fil1" d="M7076.58 8612.22c374.92,-487.5 293.25,-3737.48 258.24,-4554.46 -64.85,-1513.51 -245.25,-2867.83 -853.06,-4057.23 -2331.18,246.13 -2812.77,1899.52 -1965.78,4086.74 677.03,1748.31 1703.68,3149.83 2560.6,4524.95z"/>
   <path class="fil1" d="M8004.76 8580.88c424.65,-143.96 2242.31,-3557.02 2575.71,-4319.63 904.21,-2068.12 560.07,-4083 -1854.33,-4251.92 -1113.9,1348.28 -1018.38,6598.05 -721.38,8571.55z"/>
   <path class="fil0" d="M30322.71 9589.16l1201.81 29.1c70.51,-197.55 157.23,-406.86 244.31,-611.67 355.15,-835.3 155.14,-602.63 2951.47,-598.63l479.47 1195.02 1199.71 15.12 -2497.85 -5807.96 -1020.97 -10.43 -2557.95 5789.45z"/>
   <path class="fil0" d="M45566.74 9616.19l4368.43 -5.95 0.3 -1017.42 -3207.78 -49.51 3.23 -1399.25 2133.24 -33.68 0.58 -1056.06c-2451.89,5.65 -2213.78,239.13 -2125.85,-1154.78l3084.51 -40.22 5.93 -1051.97 -4264.08 -0.97 1.49 5809.81z"/>
   <path class="fil0" d="M18159.74 9633.93l1099.37 -14.45 11.31 -2324.1 2644.4 -35.72 4.38 2362.99 1095.42 2.59 24.22 -5778.42 -1044.36 0.36c0,639.65 116.52,1750.1 -78.09,2351.24l-2649.56 -29.38c-208.48,-542.77 -93.59,-1685.33 -88.74,-2318l-1043.36 -6.07 25.01 5788.96z"/>
   <path class="fil0" d="M29691.7 3823.6l-1141.37 -12.86c-150.97,2426.27 558.27,4781.84 -1335.62,4767.91 -2001.72,-14.73 -1193.1,-3168.39 -1330.96,-4743.08l-1135.91 -25.1c-72.88,722.04 -81.32,3400.23 41.62,4033.61 235.68,1214.14 1074.84,1862.45 2426.68,1862.53 1364.14,0.06 2131.75,-648.36 2403.54,-1778.95 150.39,-625.66 146.72,-3384.62 72.02,-4104.06z"/>
   <path class="fil1" d="M8658.61 8991.22c870.36,-245.74 3646.72,-2002.82 4248.19,-2500.96 1756.78,-1454.95 1436.8,-2949.56 -21.6,-4430.33 -740.88,688.03 -3989.12,5601.66 -4226.59,6931.29z"/>
   <path class="fil1" d="M6498.97 9000.38c-165.78,-1102.56 -2844.19,-5225.17 -3851.81,-6542.5 -248.92,-325.41 -147.85,-267.62 -480.98,-382.67 -610.96,1056.69 -2243.72,2551.91 75.03,4385.04 803.33,635.06 3162.79,2179.41 4257.76,2540.13z"/>
   <path class="fil1" d="M6113.37 9585.77c-112.43,-231.4 20.03,-79.53 -275.59,-299.7 -912.7,-679.76 -5272.33,-3168.69 -5765.84,-3292.44 -312.86,1574.36 347.23,2737.06 1399.45,3279.69 1035.29,533.92 3331.6,306.99 4641.98,312.45z"/>
   <path class="fil1" d="M9041.42 9576.56c1869.76,37.95 4151.18,254.62 5258.38,-719.15 665.05,-584.92 1056.08,-1570.58 805.04,-2828.38 -476.65,-21.71 -5912.64,3165.24 -6063.42,3547.53z"/>
   <polygon class="fil0" points="51335.78,9604.55 52491.66,9606.43 52498.72,3810.74 51372.16,3800.73 "/>
   <path class="fil1" d="M1396.58 10087.74c236.84,676.72 1226.58,1699.65 2285.32,1386.63 346.56,-102.48 1867.11,-981.47 2196.65,-1326.99 171.3,-179.63 2.62,49.62 163.27,-206.14l-4645.24 146.5z"/>
   <path class="fil1" d="M13775.56 10105.56l-4654.23 -166.05c245.89,366.59 681.03,600.97 1061.3,840.12 292,183.63 897.94,568.57 1262.49,688.17 1051.23,344.94 2092.83,-717.87 2330.44,-1362.24z"/>
   <polygon class="fil2" points="32490.05,7320.62 34201.42,7348.2 33345.68,5398.32 "/>
  </g>
 </g>
</svg>
