<?xml version="1.0" encoding="UTF-8"?>
<!DOCTYPE svg PUBLIC "-//W3C//DTD SVG 1.1//EN" "http://www.w3.org/Graphics/SVG/1.1/DTD/svg11.dtd">
<!-- Creator: CorelDRAW -->
<svg xmlns="http://www.w3.org/2000/svg" xml:space="preserve" width="509.57mm" height="127.946mm" version="1.1" style="shape-rendering:geometricPrecision; text-rendering:geometricPrecision; image-rendering:optimizeQuality; fill-rule:evenodd; clip-rule:evenodd"
viewBox="0 0 50956.98 12794.6"
 xmlns:xlink="http://www.w3.org/1999/xlink"
 xmlns:xodm="http://www.corel.com/coreldraw/odm/2003">
 <defs>
  <style type="text/css">
   <![CDATA[
    .fil2 {fill:#E6C9A8}
    .fil0 {fill:#EC9432}
    .fil1 {fill:white}
   ]]>
  </style>
 </defs>
 <g id="Layer_x0020_1">
  <metadata id="CorelCorpID_0Corel-Layer"/>
  <g id="_2497150130640">
   <path class="fil0" d="M7970.85 49.71c-333.83,67.69 -511.42,147.8 -743.29,272.45 -707.47,380.4 -899.26,918.49 -1325.49,1657.53l-2942.27 5009.49c-198.33,310.35 -2842.15,4754.75 -2922.42,5025.48 -230.59,778.17 584.42,763.58 1150.07,762.3l39803 -0.34c955.44,0 2494.91,234.56 3279.23,-733.01 313.77,-387.16 1860.45,-3100.07 2237.99,-3725.25l2940.71 -5008.6c253.95,-432.49 482.24,-806.62 734.18,-1254.44 680.41,-1209.49 1508.67,-2031.21 -436.35,-2030.88l-39803 0c-480.06,0 -1587.82,-52.71 -1972.36,25.27z"/>
   <path class="fil1" d="M6866.5 8336.8l1081.49 0.96c313.37,-390.46 1132.86,-2199.65 1457.86,-2352.2 -5.81,469.28 -85.3,2058.72 51.04,2362.65 1373.61,145.06 1116.48,-45.06 1604.31,-878.29 98.66,-168.54 808.31,-1511.3 944.2,-1581.07l2.4 2432.81 1149.69 -3.08 -0.56 -4084.91 -1367.97 -1.62c-164.18,237.74 -431.94,715.35 -573.03,977.23 -97.99,181.9 -441.33,870.14 -628.76,982.27l-8.05 -1943.79 -1298.54 -16.66c-157.81,0.17 -509.19,747.71 -632.34,968.4 -317.17,568.5 -1736.01,2848.58 -1781.74,3137.3z"/>
   <path class="fil1" d="M18504.89 8334.85c526.01,88.93 2536.49,37.56 2972,-100.45 909.32,-288.28 1126.71,-988.36 1140.41,-1929.88 13.69,-941.85 -270.78,-1709.01 -1098.31,-1956.37 -576.55,-172.33 -2318.71,-172.11 -3008.4,-116.16l-5.7 4102.86z"/>
   <path class="fil1" d="M27458.47 5569.28c39.86,-132.2 -5.64,-70.44 76.64,-147.52 140.7,234.05 62.55,2395.85 62.16,2872.9l1108.49 13.52c0,-637.7 71.94,-3721.34 -46.51,-4087.09l-1581.45 4.7c-276.09,559.94 -2330.45,3901.78 -2336.66,4129.74l1104.3 -0.33 1217.54 -2060.79c97.49,-171.62 343.34,-572.14 395.49,-725.13z"/>
   <path class="fil1" d="M13818.94 8346.98c469.06,31.81 3275.94,61.54 3529.5,-26.5 130.86,-107.72 415,-639.54 459.66,-804.28l-2828.57 -4.86c-89.89,-360.39 -77.25,-2016.3 85.75,-2237.94 301.07,-409.41 1888.28,-98.94 2166.44,-210.63 51.87,-20.85 451.78,-686.95 480.85,-846.26 -1021.73,18.61 -2997.72,-212.7 -3564.15,425.34 -363.01,408.85 -342.39,1007.53 -342.33,1662.67 0.05,631.28 -42.82,1431.7 12.85,2042.46z"/>
   <path class="fil1" d="M33503.44 8348.94c537.98,22.3 3234.63,86.36 3530.33,-34.61l480.91 -785.78 -2852.44 -16.6c-86.2,-364.8 -77.76,-2021.77 82.17,-2248.5 249.37,-353.56 1679.39,-165.46 2175.83,-203.36 85.86,-84.74 443.34,-684.66 473.86,-840.06 -3266.6,-26.1 -3904.86,-264.12 -3902.79,2084.49 0.56,639.83 -40.3,1422.25 12.13,2044.42z"/>
   <path class="fil1" d="M29273.03 5059.98l1399.89 22.02c55.67,545.64 -42.99,3122.66 45.22,3219.09 119.29,130.41 856.27,49.63 1089.98,40.69l11.52 -3251.62 1077.85 -16.38c109.85,-189.94 402.37,-651.84 438.93,-852.46 -809.54,29.12 -1660.11,5.36 -2474.17,5.36 -283.58,0 -979.3,-110.62 -1160.08,68.15 -37.62,37.17 -421.76,744.58 -429.14,765.15z"/>
   <path class="fil1" d="M40848.47 8339.49l1075.89 4.02c-32.03,-312.42 -1101.89,-1871.46 -1106.36,-2043.07 -6.71,-259.2 1066.45,-1717.29 1116.2,-2074.71l-1085.73 3.25c-136.12,139.24 -1174.79,1951.33 -1180.21,2033.34 -8.72,132.43 685.27,1284.63 851.46,1554 120.41,195.21 207.05,369.05 328.75,523.17z"/>
   <polygon class="fil1" points="23274.62,8336.69 24412.34,8346.03 24421.57,4234.85 23286.47,4226.4 "/>
   <polygon class="fil1" points="37966.63,8341.11 39088.86,8341 39113.57,4223.55 37970.93,4226.4 "/>
   <path class="fil0" d="M19610.8 7507.76c1363.89,44.61 1825.12,-3.47 1833.56,-1201.78 8.27,-1175.01 -423.61,-1389.22 -1834.79,-1222.47l1.23 2424.25z"/>
   <path class="fil1" d="M15362.61 6619.68c327.74,10.91 1580.11,69.99 1766.76,-33.98 111.29,-61.55 361.61,-537.81 366.64,-640.16 -466.31,1.9 -935.36,4.64 -1401.51,0.22 -320.81,-3.07 -378.38,-54.05 -506.95,178.26 -68.37,123.49 -218.74,385.04 -224.94,495.66z"/>
   <path class="fil1" d="M34982.6 6600.12l1795.66 23.65c91.11,-111.19 349.03,-581.42 363.18,-671.97l-1783.03 -4.03 -375.81 652.35z"/>
   <path class="fil2" d="M27458.47 5569.28c122.42,-71.44 87.65,-20.18 57.75,-22.03l29.74 2815.6 1211.34 8 1.95 -3675.9c1.85,-208.45 66.47,-413.21 -100,-473.86 118.45,365.75 46.51,3449.39 46.51,4087.09l-1108.49 -13.52c0.39,-477.05 78.54,-2638.85 -62.16,-2872.9 -82.28,77.08 -36.78,15.32 -76.64,147.52z"/>
  </g>
 </g>
</svg>
