<?xml version="1.0" encoding="UTF-8"?>
<!DOCTYPE svg PUBLIC "-//W3C//DTD SVG 1.1//EN" "http://www.w3.org/Graphics/SVG/1.1/DTD/svg11.dtd">
<!-- Creator: CorelDRAW -->
<svg xmlns="http://www.w3.org/2000/svg" xml:space="preserve" width="541.914mm" height="99.5574mm" version="1.1" style="shape-rendering:geometricPrecision; text-rendering:geometricPrecision; image-rendering:optimizeQuality; fill-rule:evenodd; clip-rule:evenodd"
viewBox="0 0 54191.36 9955.74"
 xmlns:xlink="http://www.w3.org/1999/xlink"
 xmlns:xodm="http://www.corel.com/coreldraw/odm/2003">
 <defs>
  <style type="text/css">
   <![CDATA[
    .fil0 {fill:#3253DC}
    .fil1 {fill:white}
   ]]>
  </style>
 </defs>
 <g id="Layer_x0020_1">
  <metadata id="CorelCorpID_0Corel-Layer"/>
  <g id="_2497189105920">
   <path class="fil0" d="M-1.16 4103.06l0 503.03c22.5,64.22 47.7,410.38 65.8,519.08 391.02,2348.23 2570.12,3868.32 4927.96,3514.49 172.52,-25.89 354.02,-84.05 509.83,-103.82 97.11,332.13 283.48,734.09 411.93,1070.36 81.59,213.62 120.63,343.74 391.48,351.03 247.16,6.65 515.43,3.45 763.17,-1.58 244.68,-53.61 249.86,-190.37 163.11,-417.97 -66.78,-175.19 -127.2,-330.49 -194.37,-504.32 -128.44,-332.4 -254.98,-671.57 -381.72,-998.99 57.14,-61.36 168.3,-119.28 243.02,-176.23 610.15,-465.08 1043.42,-987.36 1367.81,-1701.98 397.22,-875.04 483.06,-1975.75 225.24,-2980.63 -119.6,-466.12 -307.61,-848.06 -528.76,-1206.91 -213.94,-347.14 -517.11,-673.12 -821.09,-936.26 -1155.68,-1000.44 -2257.98,-928.12 -2492.21,-1027.1l-574.01 0c-20.81,7.09 -581.81,64.29 -884.3,145.32 -273.83,73.36 -507.65,159.6 -748.13,267.98 -1132.55,510.44 -2002.79,1591.75 -2308.66,2814 -34.65,138.43 -61.89,276.43 -84.52,423.73 -15.94,103.74 -29.34,379.51 -51.58,446.77z"/>
   <path class="fil0" d="M54190.2 8413.96l0 -128.02c-66.87,-96.77 -1927.5,-5055.32 -1970.47,-5167.18 -119.17,-310.23 -279.01,-264.21 -633.26,-264.19 -148.23,0.01 -296.45,-0.26 -444.68,-0.47 -175.6,-0.25 -250.44,11.41 -339.91,113.54 -99.37,113.43 -417.86,1063.53 -496.34,1281.7 -157.72,438.43 -316.38,867.74 -476.54,1301.6 -80.12,217.03 -156.46,431.42 -238.35,650.65 -57.82,154.8 -175.35,535.98 -246.64,640.7 -389.21,-1080.05 -843.6,-2248.36 -1255.32,-3339.15 -242.39,-642.18 -115.53,-648.57 -884.1,-648.57 -775,0 -647.97,3.83 -891.95,640.58l-823.22 2224.99c-26.86,74.33 -367.25,1035.63 -422.84,1107.57 -60.76,-91.74 -777.59,-2072.02 -832,-2222.3 -137.19,-378.92 -273.8,-733.15 -411.73,-1112.56 -235.26,-647.18 -133.59,-638.28 -894.29,-638.28 -761.97,0 -634.43,16.67 -876.49,656.05 -141.21,373.01 -277.78,739.19 -414.21,1110.04 -208.07,565.59 -679.52,1739.62 -828,2223.88 -71.88,-86.57 -938.23,-2459.27 -1111.6,-2910.46 -71.53,-186.13 -294.28,-844.48 -379.31,-954.06 -130.25,-167.85 -306.73,-125.46 -560.59,-125.45 -137.59,0.01 -561.85,-16.27 -664.73,21.52 -155.21,57 -205.04,242.55 -267.8,409.02l-1662.7 4349.21c-381.33,1020.03 -437.38,901.48 584.3,904.89 264.56,0.89 354.81,-11.94 439.19,-219.99 356.2,-878.24 750.91,-2002.18 1093.48,-2928.67 71.28,-192.79 285.36,-834.29 368.11,-958.39 429.65,1088.8 861.37,2303.27 1279.49,3421.45 274.06,732.96 171.64,685.33 862.84,685.35 660.3,0.01 537.85,15.24 832.73,-736.51 147.55,-376.15 283.92,-743.95 427.31,-1118.1 287.86,-751.13 591.78,-1499.04 861.11,-2252.8 62.76,87.39 753.03,2001.6 852.7,2273.84 140.4,383.52 281.75,757.36 422.8,1143.74 48.25,132.18 159.45,473.62 224.37,558.53 136.27,178.27 368.34,131.3 633.85,131.3 277.37,0 521.77,49.59 637.17,-149.42 79.62,-137.31 560.53,-1474.09 647.75,-1701.42 63.24,-164.8 792.05,-2168.44 848.9,-2254.12 153.78,340.54 297,767.92 433.63,1132.43l855.16 2256.7c61.86,159.81 143.07,428.2 221.64,560.75 120.17,202.72 328.76,155.08 610.62,155.08 275.41,-0.01 506.97,52.73 640.84,-145.21 68.93,-101.92 957.92,-2514.78 1074.77,-2820.26l426.32 -1119.22 950.9 2534.31c157.49,420.8 310.67,841.39 470.11,1265.7 142.78,379.97 343.02,284.6 1031.11,285.28 181.42,0.18 205.4,1.49 295.87,-125.6z"/>
   <path class="fil0" d="M20434.66 7804.2c0,568.48 -76.94,736.49 457.47,734.83 594.79,-1.84 775.59,93.48 773.74,-426.08l-0.03 -4805.55c1.84,-558.38 -237.98,-444.99 -752.53,-445.82 -611.31,-0.97 -464.4,186.81 -488.27,723.22 -45.94,-47.76 -74.91,-96.8 -114.21,-140.73 -137.87,-154.14 -254.4,-256.47 -428.78,-375.5 -1460.51,-997 -4173.57,-13.27 -4177.03,2609.83 -2.7,2049.93 1738.29,3307.95 3382.16,2959.05 506.24,-107.44 876.82,-330.15 1204.03,-681.43l143.45 -151.82z"/>
   <path class="fil0" d="M32674.46 2722.54c-1559.8,190.32 -2806.4,1527.37 -2615.12,3315.84 166.89,1560.42 1531.5,2834.53 3311.55,2632.57 1556.23,-176.56 2797.14,-1533.15 2613.7,-3310.07 -41.97,-406.61 -174.24,-826.63 -349.85,-1131.56 -364.04,-632.13 -909.83,-1125.81 -1622.12,-1362.26 -414.14,-137.48 -870.57,-201.58 -1338.16,-144.52z"/>
   <path class="fil1" d="M5071.18 7427.47c-142.07,-420.45 -480.46,-1260.91 -667.16,-1729.93 -101.59,-255.22 -128.63,-458.06 208.41,-470.78 160.21,-6.04 666.51,-16.34 799.97,13.14 226.65,50.08 253.15,246.28 339.06,465.04 148.26,377.53 316.99,783.51 445.62,1159.02 71.36,-34.2 299.26,-266.52 360.93,-341.74 345.4,-421.24 579.76,-890.81 690.43,-1469.43 167.07,-873.49 16.31,-1702.74 -349.58,-2379.44 -303.98,-562.2 -843.67,-1076.61 -1551.93,-1327.07 -779.08,-275.5 -1698.66,-212.96 -2381.03,143.53 -613.71,320.62 -1080.64,794.81 -1370.68,1487.86 -308.73,737.71 -362.71,1658.67 -103.8,2457.31 251.17,774.77 698.85,1291.07 1237.77,1640.82 539.67,350.22 1591.39,609.7 2341.99,351.67z"/>
   <path class="fil0" d="M13664.24 7841.79c0,392.46 -96.35,703.38 347.74,704.93 1130.57,3.96 883.29,206.28 883.29,-2275.59 0,-698.56 0,-1397.12 0,-2095.68 0,-328.84 18.63,-714.57 -0.59,-1036.35 -21.97,-367.67 -448.59,-283.58 -776.45,-284.6 -502.57,-1.57 -454,145.73 -453.99,601.22 0.02,679.16 50.03,2657.94 -56.79,3088.11 -338.82,1364.46 -2112.36,1321.29 -2635.56,587.09 -381.32,-535.1 -315.96,-1032.45 -315.96,-1770.03 0,-698.35 -3.29,-1397.48 0.26,-2095.73 2.48,-486.77 -215.21,-410.57 -644.65,-410.59 -477.08,-0.02 -587.56,-29.66 -586.66,474.12 1.25,698.53 0.03,1397.17 0.03,2095.7 0,681.24 -47.83,1296.16 191.64,1898.15 443.99,1116.15 1618.8,1543.82 2750.28,1323.28 405.97,-79.13 780.14,-264.82 1056.63,-529.46 62.36,-59.69 178.03,-234.86 240.78,-274.57z"/>
   <path class="fil0" d="M27657.74 2700.86c-568.12,34.4 -1057.46,193.42 -1455.43,455.22 -357.54,235.2 -711.23,580.54 -924.39,1002.19 -969.38,1917.57 -23.06,4413.61 2390.98,4535.07 587.55,29.56 1136,-85.91 1594.77,-315.73 792.81,-397.16 569.35,-514.22 167.42,-1013.73 -225.31,-280 -257.36,-235.77 -603.57,-58.01 -221.92,113.95 -417.23,209.59 -698.25,252.72 -1090.25,167.34 -1942.73,-673.15 -1960.83,-1816.19 -23.02,-1454.23 1246.41,-2386.35 2637.77,-1670.43 273.81,140.89 412.24,306.46 631.88,-8.55 378.04,-542.19 619.47,-659.35 -183.11,-1053.28 -451.23,-221.47 -1019.64,-344.25 -1597.24,-309.28z"/>
   <path class="fil0" d="M23050.11 188.68c-188.48,78.09 -174.99,215.53 -174.25,430.45l0.09 6583.42c0,1199.76 -125.03,1337.81 471.74,1336.45 847.07,-1.93 759.28,112.91 759.28,-1040.09 0,-822.54 29.98,-7040.88 -20.65,-7171.37 -66.58,-171.6 -234.13,-162.93 -442.26,-162.71 -151.48,0.15 -474.04,-25.83 -593.95,23.85z"/>
   <path class="fil1" d="M18408.06 3877.36c-1064.85,181.82 -1574.45,1167.29 -1427.73,2137.05 139.56,922.47 920.92,1701.46 2019.09,1516.22 896.87,-151.29 1567.6,-1036.46 1422.21,-2123.19 -124.42,-930.03 -920.13,-1716.78 -2013.57,-1530.08z"/>
   <path class="fil1" d="M32827.94 3868.03c-968.8,106.93 -1643.24,948.89 -1539.05,2043.06 91.71,963.12 862.04,1748.02 1943.23,1626.78 944.65,-105.92 1624.18,-964.76 1521.84,-2044.83 -90.92,-959.53 -858.5,-1742.83 -1926.02,-1625.01z"/>
  </g>
 </g>
</svg>
