<?xml version="1.0" encoding="UTF-8"?>
<!DOCTYPE svg PUBLIC "-//W3C//DTD SVG 1.1//EN" "http://www.w3.org/Graphics/SVG/1.1/DTD/svg11.dtd">
<!-- Creator: CorelDRAW -->
<svg xmlns="http://www.w3.org/2000/svg" xml:space="preserve" width="480.545mm" height="73.5546mm" version="1.1" style="shape-rendering:geometricPrecision; text-rendering:geometricPrecision; image-rendering:optimizeQuality; fill-rule:evenodd; clip-rule:evenodd"
viewBox="0 0 48054.46 7355.46"
 xmlns:xlink="http://www.w3.org/1999/xlink"
 xmlns:xodm="http://www.corel.com/coreldraw/odm/2003">
 <defs>
  <style type="text/css">
   <![CDATA[
    .fil0 {fill:#1526A3}
   ]]>
  </style>
 </defs>
 <g id="Layer_x0020_1">
  <metadata id="CorelCorpID_0Corel-Layer"/>
  <g id="_2497189051440">
   <path class="fil0" d="M13018.47 7064.09l1705.22 8.61 58.34 -6122.9 1171 6072.6c434.54,132.64 1194.65,40.08 1746.9,75.91l1141.72 -6230.28 93.25 6190.43 1680.41 30.55 -128.96 -6876.58 -2768.39 2.52c-306.15,1050.31 -568.1,4625.54 -923.29,5189.85l-832.11 -5132.31c-418.58,-142.29 -2306.4,-123.34 -2788.72,-19.75l-155.37 6811.35z"/>
   <path class="fil0" d="M35569.68 7016.55l1671.11 3.79 -92.44 -5551.25c163.64,246.1 1656.76,5145.3 1688,5551.36l2493.69 3.91 -2.53 -6814.11 -1653.88 5.51 42.14 5385.76 -1618.4 -5395.18 -2499.21 6.78 -28.48 6803.43z"/>
   <path class="fil0" d="M33623.07 186.93l-1689.72 15.74c-80.5,972.9 -22.28,2172.61 -22.28,3184.78 0,828.9 354.16,2619.22 -632.29,2667.79 -1354.4,66.72 -480.25,-3459.13 -738.87,-5816.97l-1687.42 -43.53c-120.35,1421.58 -25.95,3187.32 -31.35,4651.72 -6.43,1727.85 598.19,2431.34 2362.44,2456.84 1718.65,24.92 2468.2,-636.55 2464.87,-2359.68 -2.76,-1442.82 107.49,-3375.88 -25.38,-4756.69z"/>
   <path class="fil0" d="M47975.91 3227.49l-2363.12 -0.12 -37.67 975.66 688.45 23.89c32.62,479.9 73.61,1044.33 -61.66,1427.66 -376.21,421.68 -1191.56,464.4 -1347.97,-168.24 -79,-319.48 -22.05,-1851.64 -22.05,-2293.31 -0.11,-541.91 -224.27,-1611.85 331.43,-1867.83 1140.1,-525.26 1120.35,1046.63 1121.73,1053.98l1674.21 -5.97c53.52,-1025.73 -139.64,-1628.28 -749.2,-1988.3 -894.81,-528.59 -3680.54,-805.24 -4027.12,1185.81 -135.73,780.44 -71.2,2057.32 -66.83,2886.33 5.17,956.02 26.18,1763.33 607.37,2240.02 546.74,448.33 1585.79,601.29 2433.64,469 2088.43,-326.03 1965.56,-1824.08 1818.79,-3938.58z"/>
   <path class="fil0" d="M1795.98 4869.55l-1790.55 -18.61c-116.56,1712.23 574.99,2444.2 2216.59,2501.51 3533.44,123.22 3043.2,-3015.41 1919.86,-3758.98 -1109.22,-734.27 -3021.95,-1334.98 -2212.92,-2233.93 209.92,-233.24 589.69,-266.31 856,-100.83 298.23,185.35 243.22,560.75 314.65,947.64l1640.46 0.23c206.82,-1762.41 -785.61,-2225.55 -2427.21,-2203.73 -1493.92,19.87 -2573.28,753.56 -2258.62,2406.3 281.69,1479.45 2840.73,1861.06 3112.32,2762.88 288.02,956.48 -1293.99,1923.76 -1370.58,-302.48z"/>
   <path class="fil0" d="M6089.64 7081.55l1823.73 -17.57c157.21,-1038.02 314.88,-2067.08 457.05,-3072.6l547.09 -3077.64 876.44 6167 1799.04 -1.72 -1224.17 -6867.63c-3613.01,-5.05 -2945,-653.54 -3433.06,2085.8 -252.87,1419.27 -741.39,3389.42 -846.12,4784.36z"/>
   <path class="fil0" d="M24136.92 4812.7l-1818.8 9.19c31.47,1691.44 504.48,2426.17 2251.39,2493.12 1632.99,62.59 2706.61,-493.34 2671.47,-2180.42 -28.71,-1373.11 -1216.48,-1895.85 -2279.53,-2429.62 -1672.61,-839.8 -574.99,-1814.77 102.78,-1463.25 299.27,155.37 303.75,514.01 330.04,941.2l1659.29 25.61c73.61,-1748.05 -739.21,-2262.41 -2483.01,-2189.83 -1693.74,70.51 -2545.61,1112.2 -2118.41,2560.53 402.62,1364.96 2967.86,1704.64 3063.63,2766.2 28.94,320.63 -101.17,611.97 -413.76,707.29 -944.31,287.78 -963.14,-497.13 -965.09,-1240.02z"/>
  </g>
 </g>
</svg>
