<?xml version="1.0" encoding="UTF-8"?>
<!DOCTYPE svg PUBLIC "-//W3C//DTD SVG 1.1//EN" "http://www.w3.org/Graphics/SVG/1.1/DTD/svg11.dtd">
<!-- Creator: CorelDRAW -->
<svg xmlns="http://www.w3.org/2000/svg" xml:space="preserve" width="487.935mm" height="134.053mm" version="1.1" style="shape-rendering:geometricPrecision; text-rendering:geometricPrecision; image-rendering:optimizeQuality; fill-rule:evenodd; clip-rule:evenodd"
viewBox="0 0 48793.5 13405.28"
 xmlns:xlink="http://www.w3.org/1999/xlink"
 xmlns:xodm="http://www.corel.com/coreldraw/odm/2003">
 <defs>
  <style type="text/css">
   <![CDATA[
    .fil1 {fill:#89898A}
    .fil0 {fill:#FF6100}
   ]]>
  </style>
 </defs>
 <g id="Layer_x0020_1">
  <metadata id="CorelCorpID_0Corel-Layer"/>
  <path class="fil0" d="M6894.51 13412.41c1046,0 2328.5,-23.18 3315.34,-344.98 534,-174.14 1162.12,-440.4 1574.22,-828.53 40.07,-37.73 66.31,-49.37 104.1,-89.75 185.88,-198.66 299.26,-283.74 479.19,-528.41 58.84,-80.01 106.46,-148.18 164.92,-235.56 572.48,-855.73 793.29,-2145.19 830.95,-3169.96 60.66,-1650.57 138.17,-3341.89 -296.79,-4945.87 -114.43,-421.97 -285.71,-807.04 -488.32,-1138.58 -208.99,-341.99 -485.89,-662.59 -754.28,-886.82l-221.26 -178.8c-578.18,-432.78 -1292.53,-707.3 -2015.48,-852.52 -848.33,-170.41 -2426.68,-205.5 -3351.44,-205.5 -1362.53,0 -2986.31,161.68 -4125.3,852.72 -133.59,81.05 -368.45,242.15 -480.06,346.78 -44.54,41.76 -59.06,42.64 -109.55,97.09l-206.5 207.13c-179.58,190.47 -314.26,359.62 -453.68,592.32 -368.83,615.6 -509.98,1136.87 -632.26,1874.07 -159.26,960.16 -256.05,2080.89 -222.05,3100.71 33.43,1002.33 114.84,2040.99 326.64,2983.27 96.68,430.1 277.91,843.12 482.45,1183.95 144.97,241.57 420.51,606.78 637.94,809.79 724.03,676.03 1333.23,973.84 2386.83,1165.11 966.47,175.45 2052.58,192.34 3054.39,192.34zm-2021.24 -7057.9l0 3010.01c0,70.14 13.77,129.2 83.46,129.2l1191.73 0c54.08,0 80.23,-42.78 80.23,-103.36l0 -3048.77c0,-149.5 -148.99,-105.34 -290.15,-105.34l-775.11 0c-143.91,0 -290.16,-44.56 -290.16,118.26zm4669.5 -2066.96l0 5115.73c0,127.57 151.27,92.43 271.31,92.42l736.36 0c119.35,0.01 284.22,33.63 284.22,-92.42l0 -5115.73c0,-57.59 -32.86,-90.45 -90.44,-90.45l-1110.99 0c-57.59,0 -90.46,32.86 -90.46,90.45zm-6968.99 12.92l0 5089.89c0,144.19 154.68,105.34 380.58,105.34l736.44 0.22c236.26,1.27 173.8,-44.43 173.8,-570.63l-0.02 -3410.55c-0.6,-222.69 18.69,-210.18 178.22,-210.13 326.92,0.09 649.44,0.02 975.35,0.06 93.54,0.01 1392.01,-10.35 1512.24,6.3 267.8,37.08 485.44,209.12 589.12,393.25 152.61,271.02 117.85,491.54 117.85,844.07 0,400.34 -23,2883 18.84,2925.52 43.05,43.76 848.45,21.79 1020.58,21.9 134.84,0.08 251.4,36.5 251.4,-118.27l0 -3759.28c0,-540.21 -387.94,-992.55 -693.41,-1185.17 -491.27,-309.79 -934.43,-235.89 -1612.03,-235.89 -1150.38,0 -2352.66,11.04 -3501.36,-0.46 -92.16,-0.92 -147.6,0.21 -147.6,103.83z"/>
  <path class="fil1" d="M32498.95 6535.37c0,600.49 -4.96,831.36 189.45,1426.25 59.51,182.08 81.21,187.03 153.4,310.51 87.87,150.3 230.13,310.44 363.74,425.21 518.77,445.55 1280.8,467.28 1928.79,467.28 471.39,0 1173.54,-66.23 1575.8,-356.36l297.68 -256.29c27.68,-24.95 14.53,-9.19 38.62,-40.24 1.72,-2.21 3.85,-5.4 5.53,-7.62l188.41 -275.01c108.57,-145.37 201.71,-489.2 237.91,-665.16 132.93,-646.22 131.7,-1648.31 -132.46,-2221.03 -132.14,-286.47 -90.47,-178.28 -239.31,-404.46 -153.47,-233.19 -487.29,-451.68 -748.4,-555.78 -434.89,-173.41 -836.58,-183.65 -1244.15,-189.52 -614,-8.85 -1177.11,7.93 -1699.33,325.86 -36.77,22.38 -67.72,41.87 -104.81,63.53 -240.2,140.19 -527.41,549.72 -618.71,837.82 -107.58,339.47 -192.16,684.01 -192.16,1115.01zm1175.59 -12.92c0,190.56 -9.6,348.66 11.6,530.62 30.74,263.91 54.84,565.41 230.48,790.92 123.98,159.21 315.91,242.17 507.43,295.33 419.61,116.47 1139.57,99.73 1490.49,-112.3 253.99,-153.46 361.76,-330.51 417.78,-631.56 58.59,-314.78 34.9,-656.14 35.4,-989.27 0.74,-490.1 -88.4,-881.57 -496.94,-1084.12 -109.09,-54.08 -287.78,-109.27 -413.58,-121.74 -351.37,-34.83 -849.95,-56.69 -1179.15,76.89 -64.56,26.2 -114.95,60.51 -170.72,88.63 -148.84,75.07 -281.25,297.05 -337.3,454.09 -83.39,233.68 -72.9,423.8 -85.16,637.54 -2.83,49.33 -10.33,35.25 -10.33,64.97z"/>
  <path class="fil1" d="M38883.74 6289.92c0,192.72 -18.4,2617.89 15.98,2784.27 132.45,27.38 1045.5,17.55 1163.35,0l12.92 -2784.27c0,-282.87 -9.3,-633.82 83.09,-826.92 105.18,-219.82 435.75,-263.18 647.57,-270.56 146.12,-5.09 561.03,-4.89 730.8,53.3 279.5,95.81 306.16,357.78 310.63,618.69 16.74,979.39 5.19,2190.65 16.78,3215.89 204.3,4.33 1012.66,26.28 1169.46,-6.13 26.78,-129.56 13.05,-2998.95 12.92,-3197.66 -0.11,-162.91 6.5,-213.05 39.88,-352.33 28.42,-118.54 66.73,-174.57 156.97,-232.35 220.16,-140.95 1289.95,-181.94 1467.66,127.59 142.58,248.34 102.8,1804.5 101.58,2420.7 0,205.37 -0.17,413.55 -0.1,620.09 0.05,141.82 -11.63,505.49 16.09,613.96l1066.19 13.42c116.21,-1.33 97.15,-16 97.15,-123.56l0 -2958.34c0,-529.8 -11.32,-1049.35 -422.81,-1392.92 -160.94,-134.37 -382.13,-249.55 -599.71,-315.09 -516.05,-155.44 -1736.34,-159.33 -2270.04,129.26 -319.56,172.8 -394.76,-13.13 -734.46,-108.54 -140.4,-39.43 -259.17,-50 -407.71,-81.93 -362.87,-77.99 -1331.46,-47.86 -1734.35,77.66 -365.93,114 -666.22,318.21 -804.58,667.13 -37.01,93.33 -35.59,66.07 -64.16,180.04 -83.28,332.21 -71.1,764.88 -71.1,1128.6z"/>
  <path class="fil1" d="M28830.1 5134.06c242.62,0 430.2,-8.83 660.27,54.87 234.86,65.03 473.4,78.69 562.26,398.04 32.78,117.79 47.13,251.1 49.6,411.94l-592.9 -39.44c-147.37,-22.11 -451.5,-18.78 -613.03,-11.88 -369.93,15.8 -772.7,58.12 -1115.9,135.87 -380.21,86.14 -613.5,198.18 -857.76,405.33 -2.02,1.72 -4.95,4.17 -6.95,5.9 -2,1.74 -4.84,4.29 -6.82,6.05 -74.23,65.8 -148.98,143.84 -190.92,233.92 -240.24,516.05 -202.37,1214.31 82.57,1702.14 1.87,3.2 25.54,37.4 26.07,38.06 1.64,2.06 4.1,4.99 5.78,7.01l24.33 27.26c310.62,333.77 667.17,506.6 1118.87,582.93 334.42,56.52 589.86,65.77 957.88,65.77 628.24,0 1320.88,-49.03 1788.97,-393.84l228.42 -210.57c1.73,-2.04 4.23,-4.91 5.92,-7l118.71 -178.82c127.1,-226.54 205.6,-433.18 245.81,-758.98 88.5,-717.01 127.85,-2162.31 -420.38,-2769.48 -81.83,-90.62 -154.41,-169.92 -254.92,-249.69 -435.45,-345.57 -898.85,-436.21 -1435.68,-461.77 -683.02,-32.51 -1471.42,55.83 -2079.6,271.45 -197.21,69.92 -129.43,105.24 -144.87,353.49 -10.27,165.05 -9.86,291.12 -9.87,465.06 -0.01,379.92 14.17,285.91 583.07,137.45 389.74,-101.71 869.19,-221.07 1271.07,-221.07zm1297.96 1834.42c-569.19,-56.14 -1636.1,-142.1 -2176.75,83.21 -53.11,22.13 -78.65,35.5 -120.02,73.9 -1.97,1.82 -4.68,4.52 -6.62,6.39l-88.37 104.94c-121.12,155.08 -67.73,481.61 15.9,620.35 24.28,40.29 53.26,70.08 84.16,110.16 192.28,249.41 850.08,228.52 1148.76,227.74 119.22,-0.3 433.31,-13.59 545.82,-40.74 76.44,-18.45 286.28,-85.92 343.59,-135.21 51.13,-43.97 109.7,-97.45 140.31,-157.19 110.98,-216.56 103.71,-641.74 113.22,-893.55z"/>
  <path class="fil1" d="M19948.3 5882.64l-38.07 0c-16.21,-74.39 -247.91,-368.12 -313.25,-449.42 -22.59,-28.12 -18.84,-28.95 -36.15,-55.29 -54.23,-82.57 -139.93,-175.52 -222.77,-306.47l-571.46 -790.71c-58.8,-42.1 -930.78,-16.77 -1110.99,-15.92 -108.82,0.51 -280.37,-21.07 -355.6,28.84 22.2,190.79 199.48,324.99 306.9,468.35 125.75,167.83 271.9,365.36 410.06,520.36l61.28 68.04c127.89,142.67 233.18,297.68 356.01,444.84l406.3 510.1c27.86,32.97 48.55,47.3 69.54,73.21l231.13 292.79c-32.37,125.07 -252.2,324.9 -339.33,442.42l-765.58 950.99c-24.75,34.13 -29.3,47.88 -61.18,81.64l-386.09 479.47c-1.85,1.96 -4.53,4.68 -6.4,6.61 -70.06,72.76 -132.52,171.02 -194.51,246.25 -1.71,2.06 -4.1,5.04 -5.75,7.13l-10.86 14.67c-1.55,2.14 -3.65,5.33 -5.16,7.48 -37.01,52.8 -58.73,78.5 -53.44,153.26 79.55,51.62 346.98,25.18 484.78,27.65l814.16 2.96c135.45,-1.58 141.68,-3.27 252.05,-145.78 22.48,-29.04 40.18,-49.19 62.9,-79.35 22.66,-30.07 31.52,-50.69 51.3,-77.88 21.84,-30.03 43.2,-46.51 64.1,-77.56 23.82,-35.39 28.64,-43 55.98,-74.1l295.2 -388.76c13.15,-19.09 11.45,-18.08 28.14,-37.08l32.68 -32.63c71.22,-71.06 120.67,-156.19 178.95,-233.38l293.13 -380.29c88.8,-99.08 68.65,-95.47 142.01,7.86l164.91 221.08c78.1,99.49 148.47,210.77 219.66,309.98 18.83,26.27 32.21,47.75 55.58,74.66 26.06,29.99 37.52,41 58.88,69.29l543.56 762.86c43.21,64.4 65.49,77.01 174.29,76.57 305.97,-1.27 1120.33,35.81 1312.09,-13.19 17.1,-82.76 0.85,-119.33 -53.08,-166.9 -48,-42.32 -77.81,-107.81 -114.67,-158 -35.42,-48.2 -84.07,-97.27 -125.85,-144.08l-828.67 -1056.94c-63.95,-93.35 -263.87,-366.32 -353.78,-460.13 -50.96,-53.17 -95.42,-137.89 -145.85,-190.54 -19.28,-20.12 -12.01,-8.04 -31.73,-34.13 -62.75,-83.01 -164.76,-156.93 -148.85,-269.63 108.64,-53.03 258.07,-310.89 359,-410.04 25.53,-25.08 38.4,-41.98 59.69,-69.6 206.36,-267.76 428.83,-518.32 630.86,-789.15 21.09,-28.27 36.16,-49 55.1,-74.06 90.42,-119.64 205.82,-228.6 295.81,-351 94.28,-128.22 184.91,-249.17 294.49,-364.21l24.46 -26.9c9.3,-11.09 18.48,-23.18 28.78,-35.67 45.66,-55.37 67.21,-100.09 67.21,-192.46 -199.19,-50.89 -1090.53,15.88 -1350.33,-25.84 -135.47,-21.75 -239.37,221.34 -312.23,315.27 -81.82,105.49 -169.24,201.36 -237.57,315.72l-85.17 110.4c-1.69,2.04 -4.16,4.93 -5.87,6.98l-652.55 846.19c-19.73,24.87 -8.96,-4.52 -18.18,33.17z"/>
  <path class="fil1" d="M23937.06 7710.95c0,298.95 -7.87,1214.24 15.97,1363.24 164.51,26.34 404.71,16.12 601.05,16.01 74.24,-0.04 563.44,28.32 581.34,-35.72 0,-1082.61 3.53,-1588.7 3.43,-2328.62l-3.57 -1521.26c2.09,-271.31 16.75,-629 -5.98,-923.85 -323.59,-23.29 -651.15,-22.49 -975.69,-19.2 -254.68,2.59 -213.49,-24.81 -213.49,310.21l-3.06 3139.19z"/>
  <path class="fil1" d="M47613.59 9067.4c94.97,26.56 1020.62,37.56 1169.47,6.79 4.94,-1473.58 15.58,-3083.65 6.11,-4554.1l-3.26 -239.39c-123.46,-3.4 -238.09,-12.92 -371.37,-12.79 -132.74,0.11 -652.91,-6.08 -740.79,6.75 -98.48,14.37 -73.08,70.05 -73.08,297.1l-6.8 3048.76c0,254.9 -10.22,531.8 1.44,783.9 2.95,63.86 -10.44,568.31 18.28,662.98z"/>
 </g>
</svg>
